<svg xmlns="http://www.w3.org/2000/svg" width="251" height="24" viewBox="0 0 251 24">
  <g fill="none" fill-rule="evenodd" transform="translate(-62 -38)">
    <rect width="1440" height="100" fill="#FFF"/>
    <path fill="#05F" d="M99,0.000892134079 L110.681327,0.000892134079 C110.879314,-0.000849011419 111.021413,-4.15593607e-05 111.107624,0.00331449025 C111.366485,0.013391438 111.574783,0.0403956585 111.73641,0.0842748373 C112.251436,0.22409621 112.497905,0.521335913 112.586438,0.893726499 C112.699375,1.36876903 112.671681,1.75425046 112.677098,1.91525138 C112.68071,2.02258532 112.681531,2.60466346 112.679564,3.66148579 L111.327302,3.66148579 C111.3253,3.24813648 111.324126,2.95846696 111.323779,2.79247722 C111.322447,2.15561512 111.316413,1.80145893 111.274273,1.69696164 C111.186349,1.47893505 111.077847,1.35735735 110.681327,1.34915662 C110.239795,1.34002495 106.820332,1.34002495 100.422938,1.34915662 L100.422938,11.1914874 L109.291481,11.1914874 L109.291481,12.5397519 L100.422938,12.5397519 L100.422938,23.5955207 L99,23.5955207 L99,0.000892134079 Z M112.865371,15.0677478 C112.865371,10.1465824 116.703994,6.33773522 121.43609,6.33773522 C126.168186,6.33773522 130.006809,10.1465824 130.006809,15.0677478 C130.006809,20.090033 126.168186,24 121.43609,24 C116.703994,24 112.865371,20.090033 112.865371,15.0677478 Z M114.321401,15.0677478 C114.321401,19.3484875 117.498192,22.6180289 121.43609,22.6180289 C125.373988,22.6180289 128.550779,19.3484875 128.550779,15.0677478 C128.550779,10.8881279 125.373988,7.71970632 121.43609,7.71970632 C117.498192,7.71970632 114.321401,10.8881279 114.321401,15.0677478 Z M132.746272,17.4272106 L132.746272,7.31522698 L132.746272,6.74221457 L134.136119,6.74221457 L134.136119,7.31522698 L134.136119,16.9216114 C134.136119,19.8540867 134.500126,22.6180289 138.206383,22.6180289 C142.34283,22.6180289 144.990156,18.9103016 144.990156,14.9666279 L144.990156,7.31522698 L144.990156,6.74221457 L146.380002,6.74221457 L146.380002,7.31522698 L146.380002,23.0225082 L146.380002,23.5955207 L144.990156,23.5955207 L144.990156,23.0225082 L144.990156,20.6293388 C144.990156,19.8540867 145.122523,19.2473677 145.122523,19.2473677 L145.056339,19.2473677 C144.493783,20.8315785 142.210464,24 138.206383,24 C134.136119,24 132.746272,21.7079504 132.746272,17.4272106 Z M149.277787,23.0225082 L149.277787,7.31522698 L149.277787,6.74221457 L150.667633,6.74221457 L150.667633,7.31522698 L150.667633,9.70839644 C150.667633,10.4836485 150.535267,11.0903675 150.535267,11.0903675 L150.60145,11.0903675 C151.164007,9.50615677 153.480417,6.33773522 157.616864,6.33773522 C161.918769,6.33773522 163.076975,8.93314436 163.076975,12.9105246 L163.076975,23.0225082 L163.076975,23.5955207 L161.687128,23.5955207 L161.687128,23.0225082 L161.687128,13.4161238 C161.687128,10.4836485 161.323121,7.71970632 157.616864,7.71970632 C153.844424,7.71970632 150.667633,10.8881279 150.667633,15.2025742 L150.667633,23.0225082 L150.667633,23.5955207 L149.277787,23.5955207 L149.277787,23.0225082 Z M165.915713,15.1688676 C165.915713,9.80951628 168.99323,6.33773522 173.328226,6.33773522 C177.497765,6.33773522 179.053069,10.1465824 179.053069,10.1465824 L179.119253,10.1465824 C179.119253,10.1465824 178.986886,9.53986338 178.986886,8.7646113 L178.986886,0.573904541 L178.986886,0.000892134079 L180.376733,0.000892134079 L180.376733,0.573904541 L180.376733,23.0225082 L180.376733,23.5955207 L178.986886,23.5955207 L178.986886,23.0225082 L178.986886,21.4720041 C178.986886,20.696752 179.119253,20.1911528 179.119253,20.1911528 L179.053069,20.1911528 C179.053069,20.1911528 177.630132,24 173.063494,24 C168.629222,24 165.915713,20.3933925 165.915713,15.1688676 Z M167.371742,15.1688676 C167.371742,19.7192603 169.754336,22.6180289 173.129677,22.6180289 C176.174102,22.6180289 179.019978,20.4270991 179.019978,15.135161 C179.019978,11.393727 177.133758,7.71970632 173.262043,7.71970632 C170.019069,7.71970632 167.371742,10.4499419 167.371742,15.1688676 Z M183.083105,19.1125412 C183.083105,13.3824172 190.396343,13.3150039 193.341494,13.3150039 L194.433516,13.3150039 L194.433516,12.7419915 C194.433516,9.00055758 192.547296,7.71970632 189.89997,7.71970632 C188.554246,7.71970632 187.131308,8.14665674 185.631156,9.00055758 L184.803867,7.85453277 C186.502568,6.8433344 188.22333,6.33773522 189.966153,6.33773522 C193.771684,6.33773522 195.823362,8.4949584 195.823362,12.7082849 L195.823362,23.0225082 L195.823362,23.5955207 L194.433516,23.5955207 L194.433516,23.0225082 L194.433516,21.3708843 C194.433516,20.4608057 194.565882,19.8540867 194.565882,19.8540867 L194.499699,19.8540867 C194.532791,19.8540867 193.010578,24 188.708673,24 C186.028255,24 183.083105,22.4832025 183.083105,19.1125412 Z M184.539134,19.0114214 C184.539134,20.7978718 185.962072,22.6854421 188.774856,22.6854421 C192.381838,22.6854421 194.433516,18.8765949 194.433516,15.5396403 L194.433516,14.6295618 L193.374585,14.6295618 C190.561801,14.6295618 184.539134,14.6295618 184.539134,19.0114214 Z M199.809924,17.4212624 L199.809924,8.05082422 L198.188437,8.05082422 L197.62588,8.05082422 L197.62588,6.76997295 L198.188437,6.76997295 L199.809924,6.76997295 L199.809924,2.55664643 L199.809924,1.98363403 L201.19977,1.98363403 L201.19977,2.55664643 L201.19977,6.76997295 L204.97221,6.76997295 L205.534767,6.76997295 L205.534767,8.05082422 L204.97221,8.05082422 L201.19977,8.05082422 L201.19977,17.3201426 C201.19977,21.8368286 204.627671,22.2335813 205.336218,22.2367642 C205.677522,22.2382974 206.036979,22.2367642 206.539039,22.2367642 C206.724651,22.2367642 206.943279,22.2645257 207.159739,22.1567803 C207.254202,22.1097603 207.318933,22.0641619 207.392852,21.9009504 C207.466771,21.7377389 207.454066,21.3492535 207.454939,20.8659724 C207.455273,20.6811351 207.455273,20.3575221 207.454939,19.8951332 L208.810429,19.8951332 C208.807361,20.1827861 208.807361,20.4599553 208.810429,20.7266408 C208.812786,20.9315515 208.809736,21.1521547 208.810429,21.3731337 C208.811608,21.749373 208.809083,22.1267016 208.759618,22.4295222 C208.703178,22.7750415 208.630938,22.9101512 208.507427,23.082197 C208.261266,23.4250874 207.686366,23.5600634 207.111206,23.5596231 C206.378657,23.5590623 205.786995,23.5590623 205.336218,23.5596231 C202.158882,23.3491464 199.809924,21.1289897 199.809924,17.4212624 Z M213.157509,2.46147482 L212.594953,2.46147482 L212.594953,0.661806098 L213.157509,0.661806098 L213.686975,0.661806098 L214.249532,0.661806098 L214.249532,2.46147482 L213.686975,2.46147482 L213.157509,2.46147482 Z M212.727319,23.5955207 L212.727319,6.74221457 L213.289876,6.74221457 L213.554608,6.74221457 L214.117165,6.74221457 L214.117165,23.5955207 L213.554608,23.5955207 L213.289876,23.5955207 L212.727319,23.5955207 Z M217.08827,15.0677478 C217.08827,10.1465824 220.926893,6.33773522 225.658989,6.33773522 C230.391084,6.33773522 234.229707,10.1465824 234.229707,15.0677478 C234.229707,20.090033 230.391084,24 225.658989,24 C220.926893,24 217.08827,20.090033 217.08827,15.0677478 Z M218.544299,15.0677478 C218.544299,19.3484875 221.721091,22.6180289 225.658989,22.6180289 C229.596886,22.6180289 232.773678,19.3484875 232.773678,15.0677478 C232.773678,10.8881279 229.596886,7.71970632 225.658989,7.71970632 C221.721091,7.71970632 218.544299,10.8881279 218.544299,15.0677478 Z M237.200812,23.5955207 L237.200812,6.74221457 L237.763369,6.74221457 L238.028101,6.74221457 L238.590658,6.74221457 L238.590658,9.70839644 C238.590658,10.4836485 238.458292,11.0903675 238.458292,11.0903675 L238.524475,11.0903675 C239.087032,9.50615677 241.403442,6.33773522 245.53989,6.33773522 C249.841795,6.33773522 251,8.93314436 251,12.9105246 L251,23.5955207 L250.437443,23.5955207 L250.172711,23.5955207 L249.610154,23.5955207 L249.610154,13.4161238 C249.610154,10.4836485 249.246146,7.71970632 245.53989,7.71970632 C241.76745,7.71970632 238.590658,10.8881279 238.590658,15.2025742 L238.590658,23.5955207 L238.028101,23.5955207 L237.763369,23.5955207 L237.200812,23.5955207 Z M77.2727273,24 C72.9772727,24 71,21.2099237 71,21.2099237 L72.0227273,20.2041985 C72.0227273,20.2041985 73.7954545,22.6698473 77.3068182,22.6698473 C79.4886364,22.6698473 81.5,21.6316794 81.5,19.620229 C81.5,15.5324427 71.6818182,16.4408397 71.6818182,11.2175573 C71.6818182,8.42748092 74.1363636,7 77.5113636,7 C78.9772727,7 82.3181818,7.61641221 82.3181818,9.75763359 L82.3181818,10.990458 L80.8863636,10.990458 L80.8863636,10.2118321 C80.8863636,8.84923664 78.7727273,8.33015267 77.5795455,8.33015267 C74.8181818,8.33015267 73.1818182,9.27099237 73.1818182,11.120229 C73.1818182,15.2729008 83,14.2671756 83,19.620229 C83,22.2156489 80.5113636,24 77.2727273,24 Z M8.78956522,24 L8.78956522,2.31428571 L2.11478261,2.31428571 C1.61913043,2.31428571 1.38782609,2.51142857 1.38782609,3.03714286 L1.38782609,4.64714286 L1.42108547e-14,4.64714286 L1.42108547e-14,2.77428571 C1.42108547e-14,1.42714286 0.429565217,1 1.78434783,1 L17.2156522,1 C18.5704348,1 19,1.42714286 19,2.77428571 L19,4.64714286 L17.6121739,4.64714286 L17.6121739,3.03714286 C17.6121739,2.51142857 17.3808696,2.31428571 16.8852174,2.31428571 L10.2104348,2.31428571 L10.2104348,24 L8.78956522,24 Z M19,15.5324427 C19,20.6908397 22.6644295,24 27.0805369,24 C30.4630872,24 32.655481,21.7614504 32.655481,21.7614504 L31.935123,20.6259542 C31.935123,20.6259542 30.0872483,22.6698473 27.0805369,22.6698473 C23.4474273,22.6698473 20.3780761,19.9770992 20.3780761,15.2729008 L32.9373602,15.2729008 C32.9373602,15.2729008 33,14.7538168 33,14.3969466 C33,10.471374 30.8702461,7 26.6107383,7 C22.6017897,7 19,10.0496183 19,15.5324427 Z M20.4720358,14.0076336 C21.0357942,10.2118321 23.6979866,8.26526718 26.5794183,8.26526718 C29.1789709,8.26526718 31.4653244,10.0496183 31.6219239,14.0076336 L20.4720358,14.0076336 Z M36,24 L36,22.912 L46.1,10.72 C46.7,9.984 47.4,9.248 47.4,9.248 L47.4,9.184 C47.4,9.184 46.8,9.248 45.7,9.248 L38.2,9.248 C37.7333333,9.248 37.4666667,9.472 37.4666667,9.952 L37.4666667,11.328 L36.1,11.328 L36.1,9.856 C36.1,8.544 36.6666667,8 38.0333333,8 L49.3,8 L49.3,9.088 L39.1666667,21.28 C38.5666667,22.016 37.8333333,22.752 37.8333333,22.752 L37.8333333,22.816 C37.8333333,22.816 38.4666667,22.752 39.5666667,22.752 L47.9,22.752 C48.3666667,22.752 48.6333333,22.528 48.6333333,22.048 L48.6333333,20.672 L50,20.672 L50,22.144 C50,23.456 49.4333333,24 48.0666667,24 L36,24 Z M52,15.4026718 C52,20.2366412 55.5830116,24 60,24 C64.4169884,24 68,20.2366412 68,15.4026718 C68,10.6660305 64.4169884,7 60,7 C55.5830116,7 52,10.6660305 52,15.4026718 Z M53.3590734,15.4026718 C53.3590734,11.379771 56.3243243,8.33015267 60,8.33015267 C63.6756757,8.33015267 66.6409266,11.379771 66.6409266,15.4026718 C66.6409266,19.5229008 63.6756757,22.6698473 60,22.6698473 C56.3243243,22.6698473 53.3590734,19.5229008 53.3590734,15.4026718 Z" transform="translate(62 38)"/>
  </g>
</svg>
